<svg width="19" height="13" viewBox="0 0 19 13" fill="none" xmlns="http://www.w3.org/2000/svg">
<g id="IMAGE" clip-path="url(#clip0_40_608)">
<g id="Page-1">
<g id="kf1">
<g id="icons8-Material-Rounded-86875-50-ffffff">
<path id="email" d="M2.215 3.02557e-05C1.645 3.02557e-05 1.14 0.26703 0.83 0.67503C0.62 0.94903 0.712 1.33903 1.017 1.51703L8.553 5.96403C8.876 6.15603 9.288 6.15603 9.612 5.96403L17.117 1.47903C17.1907 1.43735 17.2543 1.38004 17.3034 1.31111C17.3525 1.24219 17.3859 1.16334 17.4013 1.08011C17.4166 0.996882 17.4135 0.9113 17.3922 0.829392C17.3709 0.747484 17.3319 0.67124 17.278 0.60603C17.1135 0.414609 16.9094 0.261258 16.6797 0.156615C16.4501 0.0519724 16.2004 -0.00145796 15.948 3.02557e-05H2.215ZM17.25 3.32003C17.1751 3.32 17.1017 3.34077 17.038 3.38003L9.612 7.81203C9.288 8.00403 8.876 8.00203 8.552 7.81003L1.127 3.43003C0.854 3.27003 0.5 3.45703 0.5 3.76203V11.376C0.5 12.272 1.268 13 2.215 13H15.95C16.898 13 17.665 12.272 17.665 11.375V3.70903C17.665 3.47903 17.465 3.31803 17.25 3.32103V3.32003Z" fill="#262F2A"/>
</g>
</g>
</g>
</g>
<defs>
<clipPath id="clip0_40_608">
<rect width="18" height="13" fill="white" transform="translate(0.5)"/>
</clipPath>
</defs>
</svg>
