<svg width="48" height="48" viewBox="0 0 48 48" fill="none" xmlns="http://www.w3.org/2000/svg">
<path d="M9.5 22.5C9.06667 22.5 8.70833 22.3583 8.425 22.075C8.14167 21.7917 8 21.4333 8 21C8 20.5667 8.14167 20.2083 8.425 19.925C8.70833 19.6417 9.06667 19.5 9.5 19.5H38.5C38.9333 19.5 39.2917 19.6417 39.575 19.925C39.8583 20.2083 40 20.5667 40 21C40 21.4333 39.8583 21.7917 39.575 22.075C39.2917 22.3583 38.9333 22.5 38.5 22.5H9.5ZM9.5 28.5C9.06667 28.5 8.70833 28.3583 8.425 28.075C8.14167 27.7917 8 27.4333 8 27C8 26.5667 8.14167 26.2083 8.425 25.925C8.70833 25.6417 9.06667 25.5 9.5 25.5H38.5C38.9333 25.5 39.2917 25.6417 39.575 25.925C39.8583 26.2083 40 26.5667 40 27C40 27.4333 39.8583 27.7917 39.575 28.075C39.2917 28.3583 38.9333 28.5 38.5 28.5H9.5Z" fill="#111213"/>
</svg>
