<svg width="104" height="37" viewBox="0 0 104 37" fill="none" xmlns="http://www.w3.org/2000/svg">
<path d="M103.648 23.211C97.0937 15.7487 88.9276 9.87488 79.7681 6.03378C70.6086 2.19269 60.6955 0.484948 50.7787 1.03976C40.8619 1.59457 31.2011 4.39739 22.5272 9.2362C13.8533 14.075 6.39347 20.8231 0.711949 28.9699L10.9091 36.0813C15.5123 29.4808 21.5563 24.0135 28.5838 20.0931C35.6114 16.1727 43.4386 13.9018 51.4731 13.4523C59.5077 13.0028 67.5393 14.3864 74.9603 17.4985C82.3814 20.6105 88.9975 25.3695 94.3082 31.4154L103.648 23.211Z" fill="url(#paint0_linear_87_177)"/>
<defs>
<linearGradient id="paint0_linear_87_177" x1="5.22649" y1="109.664" x2="103.648" y2="23.211" gradientUnits="userSpaceOnUse">
<stop stop-color="#4CCD86"/>
<stop offset="1" stop-color="#91E774"/>
</linearGradient>
</defs>
</svg>
