<svg width="96" height="53" viewBox="0 0 96 53" fill="none" xmlns="http://www.w3.org/2000/svg">
<path d="M95.3841 45.0151C86.6383 49.7227 76.9364 52.3796 67.0123 52.7849C57.0883 53.1902 47.202 51.3333 38.1015 47.3546C29.0009 43.3759 20.9243 37.3797 14.4827 29.8195C8.04108 22.2593 3.40318 13.3332 0.919816 3.71634L12.9569 0.607996C14.9689 8.39955 18.7266 15.6315 23.9455 21.7568C29.1645 27.882 35.7082 32.7402 43.0815 35.9637C50.4547 39.1872 58.4646 40.6917 66.505 40.3633C74.5455 40.0349 82.4059 37.8823 89.4918 34.0682L95.3841 45.0151Z" fill="url(#paint0_linear_40_650)"/>
<defs>
<linearGradient id="paint0_linear_40_650" x1="33.2948" y1="-70.3362" x2="95.3841" y2="45.0151" gradientUnits="userSpaceOnUse">
<stop stop-color="#4CCD86"/>
<stop offset="1" stop-color="#91E774"/>
</linearGradient>
</defs>
</svg>
