<svg width="158" height="39" viewBox="0 0 158 39" fill="none" xmlns="http://www.w3.org/2000/svg">
<path d="M15.8099 3.76285C16.5535 2.66066 17.7962 2 19.1257 2H30.5569C33.7617 2 35.6652 5.58045 33.8728 8.23715L23.7709 23.2101C23.0273 24.3122 21.7846 24.9729 20.4551 24.9729H9.02393C5.81914 24.9729 3.91564 21.3924 5.70803 18.7358L15.8099 3.76285Z" fill="url(#paint0_linear_40_381)"/>
<path d="M19.5176 27.102C18.5204 27.102 17.5883 27.5975 17.0306 28.4241L15.0754 31.3221C13.7311 33.3147 15.1588 36 17.5624 36H32.4061C33.4033 36 34.3353 35.5045 34.893 34.6779L46.3442 17.705C47.6885 15.7124 46.2609 13.0271 43.8573 13.0271H34.7975C33.8004 13.0271 32.8683 13.5226 32.3106 14.3492L24.5986 25.7799C24.0409 26.6065 23.1089 27.102 22.1117 27.102H19.5176Z" fill="#4CCD86"/>
<path d="M66.2 11.6H60.414V27H66.2C70.446 27 73.46 23.546 73.46 19.3C73.46 15.054 70.446 11.6 66.2 11.6ZM66.2 25.9H61.58V12.7H66.2C69.83 12.7 72.316 15.648 72.316 19.3C72.316 22.952 69.83 25.9 66.2 25.9ZM81.3284 15.758C77.9624 15.758 75.6304 18.266 75.6304 21.5C75.6304 24.822 78.0284 27.242 81.4164 27.242C83.5944 27.242 85.3104 26.252 86.2124 24.756L85.2444 24.184C84.6064 25.35 83.2424 26.186 81.4384 26.186C78.9304 26.186 77.0384 24.558 76.7744 22.072H86.7404C86.7404 21.896 86.7624 21.72 86.7624 21.544C86.7624 18.53 84.6724 15.758 81.3284 15.758ZM81.3284 16.814C83.4844 16.814 85.3764 18.31 85.6184 20.994H76.7744C76.9944 18.552 78.8204 16.814 81.3284 16.814ZM97.0355 11.6V17.034C96.3095 16.198 95.2315 15.692 93.7575 15.692C90.8755 15.692 88.4995 18.222 88.4995 21.5C88.4995 24.778 90.8755 27.308 93.7575 27.308C95.2315 27.308 96.3095 26.802 97.0355 25.966V27H100.335V11.6H97.0355ZM94.4175 24.184C92.8995 24.184 91.7995 23.15 91.7995 21.5C91.7995 19.85 92.8995 18.816 94.4175 18.816C95.9355 18.816 97.0355 19.85 97.0355 21.5C97.0355 23.15 95.9355 24.184 94.4175 24.184ZM105.904 22.82H113.714C113.802 22.402 113.846 21.962 113.846 21.5C113.846 18.178 111.47 15.692 108.258 15.692C104.782 15.692 102.406 18.222 102.406 21.5C102.406 24.778 104.738 27.308 108.5 27.308C110.59 27.308 112.218 26.538 113.296 25.042L110.656 23.524C110.216 24.008 109.446 24.36 108.544 24.36C107.334 24.36 106.322 23.964 105.904 22.82ZM105.838 20.356C106.146 19.234 106.982 18.618 108.236 18.618C109.226 18.618 110.216 19.08 110.568 20.356H105.838ZM118.613 19.212C118.613 18.816 118.965 18.596 119.537 18.596C120.263 18.596 120.703 18.992 121.011 19.564L123.827 18.046C122.903 16.484 121.319 15.692 119.537 15.692C117.249 15.692 115.225 16.902 115.225 19.3C115.225 23.106 120.637 22.468 120.637 23.678C120.637 24.118 120.241 24.36 119.449 24.36C118.481 24.36 117.865 23.898 117.579 23.062L114.719 24.69C115.577 26.472 117.249 27.308 119.449 27.308C121.825 27.308 124.025 26.23 124.025 23.7C124.025 19.63 118.613 20.466 118.613 19.212ZM127.522 15.032C128.6 15.032 129.502 14.13 129.502 13.052C129.502 11.974 128.6 11.072 127.522 11.072C126.444 11.072 125.542 11.974 125.542 13.052C125.542 14.13 126.444 15.032 127.522 15.032ZM125.872 27H129.172V16H125.872V27ZM139.861 16V17.122C139.135 16.22 138.079 15.692 136.649 15.692C133.525 15.692 131.237 18.244 131.237 21.28C131.237 24.316 133.525 26.868 136.649 26.868C138.079 26.868 139.135 26.34 139.861 25.438V26.45C139.861 28.012 138.915 28.804 137.375 28.804C135.923 28.804 135.285 28.188 134.867 27.418L132.051 29.046C133.063 30.85 134.977 31.708 137.265 31.708C140.191 31.708 143.073 30.146 143.073 26.45V16H139.861ZM137.199 23.832C135.637 23.832 134.537 22.798 134.537 21.28C134.537 19.762 135.637 18.728 137.199 18.728C138.761 18.728 139.861 19.762 139.861 21.28C139.861 22.798 138.761 23.832 137.199 23.832ZM152.14 15.692C150.688 15.692 149.588 16.22 148.994 17.034V16H145.694V27H148.994V20.994C148.994 19.432 149.83 18.728 151.04 18.728C152.096 18.728 152.954 19.366 152.954 20.73V27H156.254V20.246C156.254 17.276 154.362 15.692 152.14 15.692Z" fill="#111213"/>
<defs>
<linearGradient id="paint0_linear_40_381" x1="1.5" y1="13.4865" x2="38.0808" y2="13.4864" gradientUnits="userSpaceOnUse">
<stop stop-color="#4CCD86"/>
<stop offset="1" stop-color="#91E774"/>
</linearGradient>
</defs>
</svg>
