<svg width="428" height="558" viewBox="0 0 428 558" fill="none" xmlns="http://www.w3.org/2000/svg">
<path d="M-61.0834 42.1757C-55.3632 33.6972 -45.8041 28.6152 -35.5765 28.6152H191.818C216.47 28.6152 231.113 56.1572 217.325 76.5933L37.0856 343.744C31.3654 352.222 21.8063 357.304 11.5786 357.304H-215.816C-240.468 357.304 -255.111 329.763 -241.323 309.326L-61.0834 42.1757Z" fill="url(#paint0_linear_40_532)"/>
<path d="M-26.4571 387.767C-34.1279 387.767 -41.2973 391.578 -45.5874 397.937L-100.341 479.093C-110.681 494.42 -99.6997 515.076 -81.2105 515.076H179.05C186.721 515.076 193.891 511.265 198.181 504.906L388.8 222.371C399.14 207.044 388.159 186.387 369.67 186.387H192.164C184.494 186.387 177.324 190.199 173.034 196.557L50.8916 377.596C46.6015 383.955 39.4321 387.767 31.7614 387.767H-26.4571Z" fill="#4CCD86"/>
<defs>
<linearGradient id="paint0_linear_40_532" x1="-273.692" y1="192.96" x2="249.695" y2="192.96" gradientUnits="userSpaceOnUse">
<stop stop-color="#4CCD86"/>
<stop offset="1" stop-color="#91E774"/>
</linearGradient>
</defs>
</svg>
