<svg width="16" height="16" viewBox="0 0 16 16" fill="none" xmlns="http://www.w3.org/2000/svg">
<path d="M4.89947 3.20413C5.13742 2.85143 5.53508 2.64001 5.96055 2.64001H9.61851C10.644 2.64001 11.2532 3.78576 10.6796 4.6359L7.44702 9.42723C7.20906 9.77993 6.8114 9.99134 6.38593 9.99134H2.72797C1.70244 9.99134 1.09332 8.8456 1.66688 7.99546L4.89947 3.20413Z" fill="url(#paint0_linear_55_186)"/>
<path d="M6.08618 10.6726C5.76708 10.6726 5.46883 10.8312 5.29037 11.0957L4.6647 12.0231C4.23453 12.6607 4.69137 13.52 5.46052 13.52H10.2105C10.5296 13.52 10.8279 13.3614 11.0063 13.0969L14.6707 7.66556C15.1009 7.02795 14.644 6.16864 13.8749 6.16864H10.9758C10.6567 6.16864 10.3584 6.3272 10.18 6.59172L7.71213 10.2495C7.53366 10.5141 7.23542 10.6726 6.91632 10.6726H6.08618Z" fill="#4CCD86"/>
<defs>
<linearGradient id="paint0_linear_55_186" x1="0.320312" y1="6.31568" x2="12.0262" y2="6.31568" gradientUnits="userSpaceOnUse">
<stop stop-color="#4CCD86"/>
<stop offset="1" stop-color="#91E774"/>
</linearGradient>
</defs>
</svg>
