<svg width="18" height="23" viewBox="0 0 18 23" fill="none" xmlns="http://www.w3.org/2000/svg">
<g id="IMAGE">
<g id="Page-1">
<g id="kf1">
<g id="call">
<path id="Path" d="M6.56352 4.07296L7.72036 5.78977C8.22426 6.53735 8.21946 7.53459 7.70723 8.25354L6.49859 9.94931C6.42968 10.0427 6.38485 10.1517 6.36809 10.2665C6.35132 10.3813 6.36313 10.4986 6.40246 10.6078C6.7123 11.4471 7.19594 12.2424 7.85202 12.992C8.47814 13.7167 9.22585 14.3267 10.0616 14.7945C10.1697 14.8523 10.2908 14.8816 10.4134 14.8795C10.536 14.8774 10.6561 14.8441 10.7622 14.7826L12.3788 13.8704C13.1234 13.4506 14.0503 13.5862 14.6774 14.208L16.1403 15.6595C16.8699 16.3836 16.991 17.5519 16.424 18.3977L15.8166 19.3032C15.212 20.2021 14.1921 20.6835 13.1388 20.5684C10.6523 20.2918 8.07402 18.5416 5.407 15.3131C2.73628 12.0814 1.44384 9.14808 1.53398 6.5145C1.57253 5.40781 2.16213 4.41609 3.08564 3.91059L4.0184 3.40023C4.89294 2.92055 5.98298 3.20886 6.56352 4.07296Z" fill="#262F2A"/>
</g>
</g>
</g>
</g>
</svg>
