<svg width="92" height="24" viewBox="0 0 92 24" fill="none" xmlns="http://www.w3.org/2000/svg">
<mask id="mask0_40_421" style="mask-type:alpha" maskUnits="userSpaceOnUse" x="0" y="0" width="24" height="24">
<rect width="24" height="24" fill="#D9D9D9"/>
</mask>
<g mask="url(#mask0_40_421)">
<path d="M11.9999 16.6751L8.62494 19.2501C8.49161 19.3668 8.34161 19.4211 8.17494 19.4131C8.00827 19.4044 7.86661 19.3584 7.74994 19.2751C7.61661 19.1918 7.51661 19.0711 7.44994 18.9131C7.38327 18.7544 7.37494 18.5918 7.42494 18.4251L8.72494 14.2001L5.47494 11.8751C5.32494 11.7751 5.22927 11.6461 5.18794 11.4881C5.14594 11.3294 5.14994 11.1751 5.19994 11.0251C5.24994 10.8751 5.33761 10.7501 5.46294 10.6501C5.58761 10.5501 5.74161 10.5001 5.92494 10.5001H9.97494L11.2749 6.1501C11.3416 5.98343 11.4416 5.8501 11.5749 5.7501C11.7083 5.6501 11.8499 5.6001 11.9999 5.6001C12.1499 5.6001 12.2916 5.6501 12.4249 5.7501C12.5583 5.8501 12.6583 5.98343 12.7249 6.1501L14.0249 10.5001H18.0749C18.2583 10.5001 18.4126 10.5501 18.5379 10.6501C18.6626 10.7501 18.7499 10.8751 18.7999 11.0251C18.8499 11.1751 18.8539 11.3294 18.8119 11.4881C18.7706 11.6461 18.6749 11.7751 18.5249 11.8751L15.2749 14.2001L16.5749 18.4251C16.6249 18.5918 16.6166 18.7544 16.5499 18.9131C16.4833 19.0711 16.3833 19.1918 16.2499 19.2751C16.1333 19.3584 15.9916 19.4044 15.8249 19.4131C15.6583 19.4211 15.5083 19.3668 15.3749 19.2501L11.9999 16.6751Z" fill="#FFC453"/>
</g>
<mask id="mask1_40_421" style="mask-type:alpha" maskUnits="userSpaceOnUse" x="17" y="0" width="24" height="24">
<rect x="17" width="24" height="24" fill="#D9D9D9"/>
</mask>
<g mask="url(#mask1_40_421)">
<path d="M28.9999 16.6751L25.6249 19.2501C25.4916 19.3668 25.3416 19.4211 25.1749 19.4131C25.0083 19.4044 24.8666 19.3584 24.7499 19.2751C24.6166 19.1918 24.5166 19.0711 24.4499 18.9131C24.3833 18.7544 24.3749 18.5918 24.4249 18.4251L25.7249 14.2001L22.4749 11.8751C22.3249 11.7751 22.2293 11.6461 22.1879 11.4881C22.1459 11.3294 22.1499 11.1751 22.1999 11.0251C22.2499 10.8751 22.3376 10.7501 22.4629 10.6501C22.5876 10.5501 22.7416 10.5001 22.9249 10.5001H26.9749L28.2749 6.1501C28.3416 5.98343 28.4416 5.8501 28.5749 5.7501C28.7083 5.6501 28.8499 5.6001 28.9999 5.6001C29.1499 5.6001 29.2916 5.6501 29.4249 5.7501C29.5583 5.8501 29.6583 5.98343 29.7249 6.1501L31.0249 10.5001H35.0749C35.2583 10.5001 35.4126 10.5501 35.5379 10.6501C35.6626 10.7501 35.7499 10.8751 35.7999 11.0251C35.8499 11.1751 35.8539 11.3294 35.8119 11.4881C35.7706 11.6461 35.6749 11.7751 35.5249 11.8751L32.2749 14.2001L33.5749 18.4251C33.6249 18.5918 33.6166 18.7544 33.5499 18.9131C33.4833 19.0711 33.3833 19.1918 33.2499 19.2751C33.1333 19.3584 32.9916 19.4044 32.8249 19.4131C32.6583 19.4211 32.5083 19.3668 32.3749 19.2501L28.9999 16.6751Z" fill="#FFC453"/>
</g>
<mask id="mask2_40_421" style="mask-type:alpha" maskUnits="userSpaceOnUse" x="34" y="0" width="24" height="24">
<rect x="34" width="24" height="24" fill="#D9D9D9"/>
</mask>
<g mask="url(#mask2_40_421)">
<path d="M45.9999 16.6751L42.6249 19.2501C42.4916 19.3668 42.3416 19.4211 42.1749 19.4131C42.0083 19.4044 41.8666 19.3584 41.7499 19.2751C41.6166 19.1918 41.5166 19.0711 41.4499 18.9131C41.3833 18.7544 41.3749 18.5918 41.4249 18.4251L42.7249 14.2001L39.4749 11.8751C39.3249 11.7751 39.2293 11.6461 39.1879 11.4881C39.1459 11.3294 39.1499 11.1751 39.1999 11.0251C39.2499 10.8751 39.3376 10.7501 39.4629 10.6501C39.5876 10.5501 39.7416 10.5001 39.9249 10.5001H43.9749L45.2749 6.1501C45.3416 5.98343 45.4416 5.8501 45.5749 5.7501C45.7083 5.6501 45.8499 5.6001 45.9999 5.6001C46.1499 5.6001 46.2916 5.6501 46.4249 5.7501C46.5583 5.8501 46.6583 5.98343 46.7249 6.1501L48.0249 10.5001H52.0749C52.2583 10.5001 52.4126 10.5501 52.5379 10.6501C52.6626 10.7501 52.7499 10.8751 52.7999 11.0251C52.8499 11.1751 52.8539 11.3294 52.8119 11.4881C52.7706 11.6461 52.6749 11.7751 52.5249 11.8751L49.2749 14.2001L50.5749 18.4251C50.6249 18.5918 50.6166 18.7544 50.5499 18.9131C50.4833 19.0711 50.3833 19.1918 50.2499 19.2751C50.1333 19.3584 49.9916 19.4044 49.8249 19.4131C49.6583 19.4211 49.5083 19.3668 49.3749 19.2501L45.9999 16.6751Z" fill="#FFC453"/>
</g>
<mask id="mask3_40_421" style="mask-type:alpha" maskUnits="userSpaceOnUse" x="51" y="0" width="24" height="24">
<rect x="51" width="24" height="24" fill="#D9D9D9"/>
</mask>
<g mask="url(#mask3_40_421)">
<path d="M62.9999 16.6751L59.6249 19.2501C59.4916 19.3668 59.3416 19.4211 59.1749 19.4131C59.0083 19.4044 58.8666 19.3584 58.7499 19.2751C58.6166 19.1918 58.5166 19.0711 58.4499 18.9131C58.3833 18.7544 58.3749 18.5918 58.4249 18.4251L59.7249 14.2001L56.4749 11.8751C56.3249 11.7751 56.2293 11.6461 56.1879 11.4881C56.1459 11.3294 56.1499 11.1751 56.1999 11.0251C56.2499 10.8751 56.3376 10.7501 56.4629 10.6501C56.5876 10.5501 56.7416 10.5001 56.9249 10.5001H60.9749L62.2749 6.1501C62.3416 5.98343 62.4416 5.8501 62.5749 5.7501C62.7083 5.6501 62.8499 5.6001 62.9999 5.6001C63.1499 5.6001 63.2916 5.6501 63.4249 5.7501C63.5583 5.8501 63.6583 5.98343 63.7249 6.1501L65.0249 10.5001H69.0749C69.2583 10.5001 69.4126 10.5501 69.5379 10.6501C69.6626 10.7501 69.7499 10.8751 69.7999 11.0251C69.8499 11.1751 69.8539 11.3294 69.8119 11.4881C69.7706 11.6461 69.6749 11.7751 69.5249 11.8751L66.2749 14.2001L67.5749 18.4251C67.6249 18.5918 67.6166 18.7544 67.5499 18.9131C67.4833 19.0711 67.3833 19.1918 67.2499 19.2751C67.1333 19.3584 66.9916 19.4044 66.8249 19.4131C66.6583 19.4211 66.5083 19.3668 66.3749 19.2501L62.9999 16.6751Z" fill="#FFC453"/>
</g>
<mask id="mask4_40_421" style="mask-type:alpha" maskUnits="userSpaceOnUse" x="68" y="0" width="24" height="24">
<rect x="68" width="24" height="24" fill="#D9D9D9"/>
</mask>
<g mask="url(#mask4_40_421)">
<path d="M77.5999 16.6501L79.9999 14.8001L82.3999 16.6501L81.4999 13.6001L83.7499 12.0001H80.9499L79.9999 8.9001L79.0499 12.0001H76.2499L78.4999 13.6001L77.5999 16.6501ZM79.9999 16.6751L76.6249 19.2501C76.4916 19.3668 76.3416 19.4211 76.1749 19.4131C76.0083 19.4044 75.8666 19.3584 75.7499 19.2751C75.6166 19.1918 75.5166 19.0711 75.4499 18.9131C75.3833 18.7544 75.3749 18.5918 75.4249 18.4251L76.7249 14.2001L73.4749 11.8751C73.3249 11.7751 73.2293 11.6461 73.1879 11.4881C73.1459 11.3294 73.1499 11.1751 73.1999 11.0251C73.2499 10.8751 73.3376 10.7501 73.4629 10.6501C73.5876 10.5501 73.7416 10.5001 73.9249 10.5001H77.9749L79.2749 6.1501C79.3416 5.98343 79.4416 5.8501 79.5749 5.7501C79.7083 5.6501 79.8499 5.6001 79.9999 5.6001C80.1499 5.6001 80.2916 5.6501 80.4249 5.7501C80.5583 5.8501 80.6583 5.98343 80.7249 6.1501L82.0249 10.5001H86.0749C86.2583 10.5001 86.4126 10.5501 86.5379 10.6501C86.6626 10.7501 86.7499 10.8751 86.7999 11.0251C86.8499 11.1751 86.8539 11.3294 86.8119 11.4881C86.7706 11.6461 86.6749 11.7751 86.5249 11.8751L83.2749 14.2001L84.5749 18.4251C84.6249 18.5918 84.6166 18.7544 84.5499 18.9131C84.4833 19.0711 84.3833 19.1918 84.2499 19.2751C84.1333 19.3584 83.9916 19.4044 83.8249 19.4131C83.6583 19.4211 83.5083 19.3668 83.3749 19.2501L79.9999 16.6751Z" fill="#FFC453"/>
</g>
</svg>
